<?xml version="1.0" encoding="utf-8"?>
<svg xmlns="http://www.w3.org/2000/svg" viewBox="0 0 1877 1998">
 <defs>
  <linearGradient id="coreven-gradient" x1="10%" y1="90%" x2="90%" y2="10%">
   <stop offset="0%" stop-color="#4A8FE7"/>
   <stop offset="100%" stop-color="#3ECF8E"/>
  </linearGradient>
 </defs>
 <path fill="url(#coreven-gradient)" d="M889.12 1994.12 c-122.42 -14.19 -224.79 -43.90 -329.99 -95.36 -137.37 -67.36 -256.20 -164.43 -352.32 -287.60 -85.90 -110.31 -152.88 -255.25 -182.97 -396.40 -14.19 -66.41 -20.06 -119.39 -21.38 -192.05 -1.51 -83.25 3.78 -140.96 20.25 -222.33 25.92 -128.29 78.33 -255.06 150.42 -363.29 116.74 -175.59 283.06 -307.09 478.14 -378.05 105.20 -38.41 220.62 -59.03 328.29 -59.03 228 0 451.27 83.63 624.03 233.49 25.17 21.95 63.95 58.85 74.93 71.52 18.92 21.95 18.92 31.98 0 50.71 -47.87 47.68 -200.57 192.81 -205.86 195.65 -11.16 6.05 -17.41 2.65 -47.30 -25.54 -93.28 -88.55 -186.94 -141.72 -298.96 -169.91 -139.83 -35 -282.87 -20.06 -418.92 43.71 -127.72 59.98 -234.63 165.37 -300.47 296.69 -42.95 85.90 -63.01 165.37 -68.31 270.95 -6.62 128.29 15.14 234.44 69.82 343.99 117.88 235.57 372.56 376.91 632.16 350.99 67.74 -6.81 131.31 -24.41 198.67 -54.87 39.73 -17.98 96.12 -52.41 132.45 -81.17 54.30 -42.95 112.20 -103.69 145.51 -153.07 16.08 -23.84 23.46 -26.68 39.73 -15.14 10.03 7 170.86 132.64 200 156.10 28.19 22.52 31.03 25.92 31.03 36.90 0 11.35 -6.05 22.52 -27.81 51.28 -122.23 161.21 -293.85 284.96 -483.06 347.77 -66.60 22.14 -126.58 35 -208.51 44.28 -44.28 5.11 -135.67 5.11 -179.56 -0.19z"/>
 <path fill="#000000" d="M958.37 1514.28 c-101.04 -8.14 -193.94 -44.09 -274.36 -106.34 -94.99 -73.41 -160.07 -172.37 -188.08 -286.28 -10.22 -41.44 -12.49 -63.01 -12.49 -120.72 0 -44.84 0.57 -55.82 4.35 -80.23 13.43 -86.85 44.84 -161.59 97.07 -231.98 21.38 -28.95 73.98 -82.12 100.66 -101.99 83.25 -62.06 195.08 -104.26 276.25 -104.26 l19.87 0 1.14 67.74 c0.57 37.09 1.70 103.88 2.27 148.15 l1.14 80.79 -10.03 1.14 c-68.68 8.70 -121.66 38.03 -160.45 89.12 -48.44 63.77 -55.25 167.64 -15.89 239.36 14.95 27.63 45.03 60.55 70.58 77.20 41.44 27.44 91.39 40.11 136.61 34.82 49.57 -5.87 94.42 -24.98 135.67 -58.28 8.51 -7 64.33 -60.93 123.93 -119.77 59.41 -58.85 126.96 -125.64 150.24 -148.72 23.27 -22.89 43.14 -43.14 44.09 -44.84 1.70 -3.03 -19.11 -24.41 -87.23 -89.88 -8.70 -8.51 -15.52 -15.89 -14.95 -16.65 0.76 -0.57 8.70 -2.27 17.98 -3.97 27.44 -4.73 104.07 -19.11 159.70 -30.08 256.20 -50.33 335.48 -65.47 336.80 -64.14 0.76 0.95 -12.87 73.23 -30.27 160.64 -17.41 87.42 -40.87 205.86 -52.03 263.01 -11.16 57.33 -20.81 105.01 -21.57 106.34 -0.76 1.32 -23.84 -19.11 -60.55 -53.55 -32.54 -30.65 -60.17 -55.63 -60.93 -55.63 -1.89 0 -30.08 27.06 -101.04 96.50 -147.02 143.99 -216.46 209.27 -263.76 247.30 -64.14 51.47 -125.83 80.61 -205.68 97.07 -35.95 7.57 -85.71 10.97 -119.02 8.14z"/>
</svg>
